#.obj
#Sunday, March 21, 2021
#4:30:44 AM
#-------

#New Game Object
#-------
g New Game Object
v 3.262836 1.252489 4.473866
v -0.9087701 3.820863 -3.78572
v 3.334435 -0.1964931 -1.674031
v 3.262836 1.252489 4.473866
v -4.489121 4.644128 4.073144
v -0.9087701 3.820863 -3.78572
v 3.262836 1.252489 4.473866
v 3.334435 -0.1964931 -1.674031
v -3.358204 -4.280064 1.430177
v -3.358204 -4.280064 1.430177
v -4.140406 2.401 -3.259672
v -4.715261 4.02663 -0.06645155
v -0.9087701 3.820863 -3.78572
v -4.715261 4.02663 -0.06645155
v -4.140406 2.401 -3.259672
v -4.715261 4.02663 -0.06645155
v -0.9087701 3.820863 -3.78572
v -4.489121 4.644128 4.073144
v -3.358204 -4.280064 1.430177
v 0.9491997 -2.227001 -3.67611
v -4.140406 2.401 -3.259672
v 3.334435 -0.1964931 -1.674031
v 0.9491997 -2.227001 -3.67611
v -3.358204 -4.280064 1.430177
v -0.9087701 3.820863 -3.78572
v -4.140406 2.401 -3.259672
v 0.9491997 -2.227001 -3.67611
v 0.9491997 -2.227001 -3.67611
v 3.334435 -0.1964931 -1.674031
v -0.9087701 3.820863 -3.78572
v -3.358204 -4.280064 1.430177
v -4.35182 2.645621 3.873495
v 3.262836 1.252489 4.473866
v -4.35182 2.645621 3.873495
v -4.489121 4.644128 4.073144
v 3.262836 1.252489 4.473866
v -4.715261 4.02663 -0.06645155
v -4.35182 2.645621 3.873495
v -3.358204 -4.280064 1.430177
v -4.35182 2.645621 3.873495
v -4.715261 4.02663 -0.06645155
v -4.489121 4.644128 4.073144

vn 0.7183189 0.678982 -0.1516618
vn 0.7183189 0.678982 -0.1516618
vn 0.7183189 0.678982 -0.1516618
vn 0.3957321 0.9144711 0.08449156
vn 0.3957321 0.9144711 0.08449156
vn 0.3957321 0.9144711 0.08449156
vn 0.5749703 -0.7948346 0.1940288
vn 0.5749703 -0.7948346 0.1940288
vn 0.5749703 -0.7948346 0.1940288
vn -0.9805625 -0.1758673 -0.08699273
vn -0.9805625 -0.1758673 -0.08699273
vn -0.9805625 -0.1758673 -0.08699273
vn -0.4179956 0.7769449 -0.4707825
vn -0.4179956 0.7769449 -0.4707825
vn -0.4179956 0.7769449 -0.4707825
vn -0.08583565 0.9860799 -0.1424032
vn -0.08583565 0.9860799 -0.1424032
vn -0.08583565 0.9860799 -0.1424032
vn -0.5333073 -0.5269551 -0.6617414
vn -0.5333073 -0.5269551 -0.6617414
vn -0.5333073 -0.5269551 -0.6617414
vn 0.5647691 -0.8114756 0.1501439
vn 0.5647691 -0.8114756 0.1501439
vn 0.5647691 -0.8114756 0.1501439
vn -0.1349161 -0.05937341 -0.9890766
vn -0.1349161 -0.05937341 -0.9890766
vn -0.1349161 -0.05937341 -0.9890766
vn 0.5541276 0.1554126 -0.8177955
vn 0.5541276 0.1554126 -0.8177955
vn 0.5541276 0.1554126 -0.8177955
vn -0.1366336 -0.3469494 0.927878
vn -0.1366336 -0.3469494 0.927878
vn -0.1366336 -0.3469494 0.927878
vn -0.09733828 -0.1055512 0.9896383
vn -0.09733828 -0.1055512 0.9896383
vn -0.09733828 -0.1055512 0.9896383
vn -0.9872814 -0.1546492 0.03686523
vn -0.9872814 -0.1546492 0.03686523
vn -0.9872814 -0.1546492 0.03686523
vn -0.995035 -0.07490741 0.06553114
vn -0.995035 -0.07490741 0.06553114
vn -0.995035 -0.07490741 0.06553114


usemtl Standard
usemap Standard
f 2/2/2 1/1/1 3/3/3
f 5/5/5 4/4/4 6/6/6
f 8/8/8 7/7/7 9/9/9
f 11/11/11 10/10/10 12/12/12
f 14/14/14 13/13/13 15/15/15
f 17/17/17 16/16/16 18/18/18
f 20/20/20 19/19/19 21/21/21
f 23/23/23 22/22/22 24/24/24
f 26/26/26 25/25/25 27/27/27
f 29/29/29 28/28/28 30/30/30
f 32/32/32 31/31/31 33/33/33
f 35/35/35 34/34/34 36/36/36
f 38/38/38 37/37/37 39/39/39
f 41/41/41 40/40/40 42/42/42
